<?xml version="1.0" encoding="utf-8"?>
<!-- Generator: Adobe Illustrator 12.0.0, SVG Export Plug-In . SVG Version: 6.00 Build 51448)  -->
<!DOCTYPE svg PUBLIC "-//W3C//DTD SVG 1.1//EN" "http://www.w3.org/Graphics/SVG/1.1/DTD/svg11.dtd" [
	<!ENTITY ns_svg "http://www.w3.org/2000/svg">
	<!ENTITY ns_xlink "http://www.w3.org/1999/xlink">
]>
<svg  version="1.1" id="Layer_1" xmlns="&ns_svg;" xmlns:xlink="&ns_xlink;" width="537" height="140" viewBox="0 0 537 140"
	 overflow="visible" enable-background="new 0 0 537 140" xml:space="preserve">
<g>
	<path fill-rule="evenodd" clip-rule="evenodd" d="M145.879,87.792h0.119l5.348-20.858h19.491v9.033l0,0
		c-1.903,1.188-1.724,3.088-1.724,4.99l0,0v22.877l0,0c0,1.904-0.179,3.804,1.724,4.991l0,0v9.032h-18.6v-9.032l0,0
		c1.901-1.188,1.722-3.087,1.722-4.991l0,0V90.167h-0.119l-6.892,27.69h-7.211l-6.361-27.69h-0.119v13.667l0,0
		c0,1.904-0.179,3.804,1.723,4.991l0,0v9.032h-15.688v-9.032l0,0c1.901-1.188,1.723-3.087,1.723-4.991l0,0V80.957l0,0
		c0-1.902,0.179-3.803-1.723-4.99l0,0v-9.033h21.356L145.879,87.792L145.879,87.792L145.879,87.792z"/>
	<path fill-rule="evenodd" clip-rule="evenodd" d="M190.873,79.685c-13.132,0.059-16.578,4.159-16.341,14.379l0,0v10.161l0,0
		c0,4.517,0.179,8.678,4.1,11.588c3.09,2.318,8.854,3.269,14.558,2.854c5.764-0.418,11.527-2.142,14.619-4.813l0,0v-9.39h-14.025
		v1.367l0,0c0,1.901-0.177,4.099-2.613,4.099c-2.437,0-2.675-2.435-2.615-4.279l0,0v-3.396l19.253-0.049v-8.854l0,0
		C208.046,84.201,204.659,79.625,190.873,79.685L190.873,79.685L190.873,79.685L190.873,79.685z M194.022,93.648h-5.466v-1.426l0,0
		c0-1.485,0.238-3.803,2.734-3.803c2.495,0,2.732,2.317,2.732,3.803l0,0V93.648L194.022,93.648L194.022,93.648z"/>
	<path fill-rule="evenodd" clip-rule="evenodd" d="M226.041,83.426c1.486-2.556,3.03-3.803,6.063-3.803
		c0.534,0,1.127,0.06,1.663,0.177l0,0v12.777h-1.129l0,0c-4.872,0-5.942,2.733-5.942,7.13l0,0v3.625l0,0
		c0,1.188,0,2.854,0.238,4.042c0.237,1.247,0.595,1.545,1.782,2.137l0,0v8.38h-17.767v-8.497l0,0
		c1.901-1.247,1.722-2.97,1.722-4.934l0,0V93.883l0,0c0-1.96,0.179-3.684-1.722-4.931l0,0v-8.497h15.093V83.426L226.041,83.426
		L226.041,83.426z"/>
	<path fill-rule="evenodd" clip-rule="evenodd" d="M253.211,83.426c1.485-2.556,3.031-3.803,6.06-3.803
		c0.535,0,1.128,0.06,1.664,0.177l0,0v12.777h-1.129l0,0c-4.872,0-5.941,2.733-5.941,7.13l0,0v3.625l0,0
		c0,1.188,0,2.854,0.238,4.042c0.236,1.247,0.593,1.545,1.782,2.137l0,0v8.38h-17.769v-8.497l0,0
		c1.904-1.247,1.724-2.97,1.724-4.934l0,0V93.883l0,0c0-1.96,0.18-3.684-1.724-4.931l0,0v-8.497h15.095V83.426L253.211,83.426
		L253.211,83.426z"/>
	<path fill-rule="evenodd" clip-rule="evenodd" d="M280.959,104.583c0,1.9-0.178,3.804,1.782,4.931l0,0v8.38h-17.528v-8.38l0,0
		c1.844-1.127,1.725-2.792,1.725-4.693l0,0V93.768l0,0c0-1.902,0.177-3.803-1.725-4.933l0,0v-8.377h15.746V104.583L280.959,104.583
		L280.959,104.583z"/>
	<path fill-rule="evenodd" clip-rule="evenodd" d="M265.804,72.063c0-4.042,4.16-5.705,7.605-5.705c3.505,0,7.547,1.901,7.547,5.943
		c0,3.919-3.981,5.762-7.429,5.762C269.845,78.063,265.804,76.28,265.804,72.063L265.804,72.063L265.804,72.063L265.804,72.063z"/>
	<path fill-rule="evenodd" clip-rule="evenodd" d="M302.151,104.547c0,1.844-0.18,3.924,1.723,4.934l0,0v8.377h-17.471v-8.377l0,0
		c1.842-1.13,1.722-2.792,1.722-4.696l0,0V80.245l0,0c0-1.903,0.178-3.804-1.722-4.934l0,0v-8.377h15.748V104.547L302.151,104.547
		L302.151,104.547z"/>
	<path fill-rule="evenodd" clip-rule="evenodd" d="M339.384,117.857v-9.032l0,0c1.904-1.188,1.724-3.087,1.724-4.991l0,0V80.957l0,0
		c0-1.902,0.181-3.803-1.724-4.99l0,0v-9.033h19.313v9.033l0,0c-1.9,1.188-1.723,3.088-1.723,4.99l0,0v26.086h2.212l0,0
		c4.039,0,3.979-2.437,3.979-5.644l0,0v-8.259h13.963v24.717H339.384L339.384,117.857L339.384,117.857z"/>
	<path fill-rule="evenodd" clip-rule="evenodd" d="M398.599,80.49h15.271v8.377l0,0c-1.662,1.131-2.08,3.448-2.615,5.289l0,0
		l-6.655,22.521l0,0c-2.317,7.965-4.217,14.679-14.024,14.679c-2.198,0-4.336-0.237-6.476-0.833l0,0v-8.143l0,0
		c2.675,0,4.574-0.89,5.525-3.505l0,0l-9.092-25.788l0,0c-0.652-1.843-0.95-3.268-2.614-4.221l0,0V80.49h17.888v8.377l0,0
		c-0.893,0.418-1.547,0.655-1.547,1.786c0,0.652,0.356,1.84,0.477,2.435l0,0l2.732,8.855l2.197-8.855l0,0
		c0.12-0.595,0.477-1.782,0.477-2.435c0-1.131-0.653-1.368-1.544-1.786l0,0V80.49L398.599,80.49L398.599,80.49z"/>
	<path fill-rule="evenodd" clip-rule="evenodd" d="M433.314,82.771c3.805-2.553,7.132-3.208,10.103-3.088
		c2.911,0.117,5.467,1.07,6.892,2.495c2.556,2.436,2.854,5.169,2.854,8.379l0,0v14.023l0,0c0,1.844-0.178,3.921,1.662,4.931l0,0
		v8.38h-14.913l0,0c-0.833-3.804-0.772-7.785-0.772-11.647l0,0V95.311l0,0c0-0.237,0.178-1.96-0.418-3.328
		c-0.949-1.426-2.495-2.495-4.813-1.426l0,0v14.023l0,0c0,1.844-0.178,3.921,1.724,4.931l0,0v8.38h-17.47v-8.38l0,0
		c1.844-1.07,1.724-2.792,1.724-4.693l0,0v-11.35l0,0c0-2.021,0.061-3.328-1.724-4.636l0,0v-8.377h15.153V82.771L433.314,82.771
		L433.314,82.771z"/>
	<path fill-rule="evenodd" clip-rule="evenodd" d="M477.644,93.351c0-1.783,0.178-4.931-2.555-4.931
		c-2.677,0-2.616,2.793-2.616,4.692l0,0v11.945l0,0c0,1.901-0.061,4.871,2.616,4.871c2.97,0,2.555-4.099,2.555-6.001l0,0v-1.96
		h13.134v11.587l0,0c-3.983,3.981-10.995,5.111-16.4,5.111c-15.866,0-15.927-9.213-15.927-13.729l0,0V92.46l0,0
		c0-7.964,2.91-12.775,15.569-12.775c5.883,0,12.002,1.008,16.758,4.634l0,0v10.223h-13.134V93.351L477.644,93.351L477.644,93.351z"
		/>
	<path fill-rule="evenodd" clip-rule="evenodd" d="M509.136,82.085c3.208-1.9,6.533-2.553,9.507-2.435
		c2.91,0.12,5.466,1.069,6.891,2.495c2.557,2.436,2.854,5.169,2.854,8.379l0,0v14.022l0,0c0,1.844-0.178,3.924,1.662,4.934l0,0
		v8.377h-14.249l0,0c-0.83-3.804-0.772-7.784-0.772-11.644l0,0V95.277l0,0c0-0.237,0.18-1.959-0.415-3.328
		c-0.95-1.425-3.162-2.495-5.478-1.425l0,0v14.022l0,0c0,1.844-0.181,3.924,1.722,4.934l0,0v8.377h-16.804v-8.377l0,0
		c1.84-1.069,1.722-2.792,1.722-4.696l0,0V80.245l0,0c0.061-1.903,0.178-3.924-1.782-4.934l0,0v-8.377h15.143V82.085L509.136,82.085
		L509.136,82.085z"/>
	<path fill-rule="evenodd" clip-rule="evenodd" d="M323.787,104.547c0,1.844-0.179,3.924,1.725,4.934l0,0v8.377h-17.471v-8.377l0,0
		c1.843-1.13,1.723-2.792,1.723-4.696l0,0V80.245l0,0c0-1.903,0.177-3.804-1.723-4.934l0,0v-8.377h15.746V104.547L323.787,104.547
		L323.787,104.547z"/>
	<path fill-rule="evenodd" clip-rule="evenodd" d="M96.84,45.534c-5.936-2.899-16.013-4.832-20.982-6.764
		c-4.97-1.933-8.834-5.798-5.591-10.976c2.838-4.529,8.49-2.621,11.112-1.311c4.088,2.045,8.007,4.556,11.458,4.556
		s12.009-3.451,15.46-13.942l0,0H83.035l0,0c-8.282,0-15.53,3.382-17.807,8.973c-2.24,5.498-0.966,12.424,8.421,16.565
		c3.037,1.38,12.148,3.451,18.498,6.211c6.351,2.762,12.562,6.626,10.768,12.562c-1.795,5.936-10.124,6.357-14.84,6.075
		c-5.729-0.346-22.087-3.453-26.918-14.219c-0.966-2.623-6.489-14.977-8.007-17.324c1.656,0.138,5.176,0.208,5.454-1.173
		c0.275-1.381-1.106-3.866-2.348-5.799c4.555-2.347,5.108-24.848-12.147-19.188l0,0l2.347,2.623l0,0
		c2.622,3.313-1.795,6.351-3.589,5.246c-0.829-0.69-1.38-0.69-2.624-0.69l0,0h-9.661l0,0c-1.244,0-1.52,0.275-2.347,0.553
		c-4.142,1.656-4.695-3.176-3.038-4.971l0,0l2.485-2.484l0,0c-7.869-5.384-23.054,5.522-14.218,17.531
		c-2.623,2.485-4.004,8.697-0.415,7.731c0.966-0.416,3.175-0.829,4.417-1.242l0,0L9.321,56.645l0,0
		c-1.518,3.59-4.969,12.976,1.035,21.812c-2.347,3.448-0.896,10.973-0.068,14.563c0.829,3.587,3.038,9.11-0.828,24.018l0,0h12.424
		l0,0c-0.138-4.278,0.276-7.177,0.828-9.25c0.553-2.069,1.933-6.902,1.933-8.696c1.312,0.552,5.108,0.552,6.213,0
		c1.656,2.762,6.074,9.388,19.049,9.664c0.829-1.794,1.794-7.731,1.518-11.872c0.967-0.828,2.071-0.967,2.899-1.242
		c0.828-0.275,1.794,0,1.932,1.105c0.138,1.103,1.242,1.931,2.486,1.379c1.24-0.552,2.553-0.068,2.276,1.45
		c-0.275,1.518-0.76,8.766-8.352,17.462l0,0H67.3l0,0c1.518-3.314,5.521-12.011,9.662-15.737c1.104,1.518,4.556,5.797,10.629,2.761
		c-1.104,1.933-5.522,10.077-7.316,12.977l0,0h16.807l0,0c0.657-2.348,4.727-15.393,8.593-20.431c0.828-1.103,1.104-2.76-0.69-3.587
		c-1.793-0.83-5.108-2.485-8.558-10.493c-1.382-3.727-5.246-9.662-6.349-10.627c3.865,0.551,13.251-0.414,16.425-6.903
		C109.677,58.51,106.917,50.227,96.84,45.534L96.84,45.534L96.84,45.534L96.84,45.534z M86.594,21.318h12.217l0,0
		c1.38,0,1.518,0.966,0.689,1.795c-0.827,0.828-3.104,3.026-6.419,3.105c-2.898,0.068-5.59-2.001-6.901-2.83
		C85.079,22.694,85.766,21.318,86.594,21.318L86.594,21.318L86.594,21.318L86.594,21.318z M20.023,98.304
		c-0.551,3.587-1.795,10.903-2.968,14.494l0,0H14.57l0,0c2.417-9.387,0.759-16.703-0.07-20.154c-0.828-3.451-1.311-7.246-0.621-9.18
		c0.415,0.688,2.485,3.451,3.175,4.418C19.954,92.297,20.574,94.713,20.023,98.304L20.023,98.304L20.023,98.304L20.023,98.304z
		 M31.632,91.731c-2.623,4.143-6.004,1.657-7.246-0.413c-1.243-2.071-3.451-5.935-6.902-10.492
		c-3.885-5.127-5.245-7.177-6.351-11.457c-1.103-4.278,1.106-6.074,3.728-5.383c2.623,0.691,5.385,5.798,5.936,7.592
		c0.414,1.654,3.451,1.654,3.451-0.139c-0.553-7.178-9.387-13.114-11.044-14.493c2.347-5.798,8.767-23.743,9.387-28.99
		c-10.077-2.76-8.144-12.837-2.623-13.667c-2.276,4.418,3.521,10.976,7.593,8.352c1.323-0.852,1.862-1.035,3.036-1.035l0,0h9.111
		l0,0c1.45,0,2.692,0.967,3.313,1.173c7.729,1.38,9.111-4.762,8.42-7.041c3.176,0.967,2.968,5.936,1.657,8.421
		c-1.312,2.484-6.005,3.382-9.87,3.037c-4.211,0.068-5.522,5.108-5.798,6.902c-0.277,1.795,0.551,2.692,0.689,4.348
		c0.138,1.657-2.14,2.139-3.795,2.139c-1.657,0-2.554-0.689-3.796-0.689c-1.243,0-2.209,0.621-2.209,1.725
		c0,1.105,0.622,1.794,1.932,1.726c1.312-0.069,2.416-0.829,4.211-0.759c1.794,0.068,3.381,1.31,5.453,1.379
		c2.07,0.069,2.76-1.933,2.76-2.691c0-0.76,0.138-1.726-1.035-2.83c1.346-0.69,2.485-3.727,4.832-4.142
		c1.656,2.624,10.421,14.495,9.8,24.849c-0.504,8.416-7.04,13.252-9.938,14.769C38.879,78.205,34.256,87.592,31.632,91.731
		L31.632,91.731L31.632,91.731L31.632,91.731z M43.857,32.34c-1.178,1.405-2.468,1.848-3.008,1.319
		c-0.474-0.464-0.419-1.723,0.76-3.126c1.178-1.405,2.514-1.959,3.093-1.475C45.281,29.542,45.035,30.937,43.857,32.34L43.857,32.34
		L43.857,32.34L43.857,32.34z M47.136,92.417c-2.483,1.174-6.625,2.76-8.143,3.175c-1.243,0.344-0.971,1.292-0.898,1.655
		c0.139,0.69,3.037,2.14,5.176,1.449c0.622-0.344,1.795-0.69,3.106-0.62c0.207,1.38,0.138,3.935-0.344,5.661
		c-3.037-0.416-11.182-3.384-11.043-7.386c0.137-4.006,5.452-9.941,7.455-10.905c2-0.967,5.176-1.589,6.487,0.688
		C50.243,88.414,49.622,91.243,47.136,92.417L47.136,92.417L47.136,92.417L47.136,92.417z M54.191,90.186
		c0.138-2.208,0.138-9.249-7.455-11.043c2.071-1.243,13.667-7.591,13.667-18.358c2.208,2.484,7.455,5.66,9.802,6.764
		c-2.624,1.794-9.664,10.351,0.552,22.361c-1.52,0.412-4.831,0.827-6.351,1.379c-1.242,0.415-1.931-0.136-1.931-1.654
		c0-0.967,0.15-1.718-1.38-1.521C59.505,88.321,55.434,89.495,54.191,90.186L54.191,90.186L54.191,90.186L54.191,90.186z
		 M64.521,112.828h-3.314l0,0c4.486-8.352,5.107-13.667,5.107-15.598c2.347-1.382,6.833-1.45,8.283-1.382
		C72.734,97.367,65.901,110.068,64.521,112.828L64.521,112.828L64.521,112.828L64.521,112.828z M82.681,100.236
		c-2.001-0.483-2.554-2.553-2.554-3.935c0.968,0.14,4.97,1.174,5.937,1.726C87.029,98.579,86.234,101.094,82.681,100.236
		L82.681,100.236L82.681,100.236L82.681,100.236z M92.56,85.157c3.037,6.211,5.245,9.04,6.488,10.146
		c1.242,1.103,0.966,2.001,0.207,3.312c-1.104,2.073-4.901,11.044-6.005,14.151l0,0H88.28l0,0c2.209-3.451,4.279-8.421,4.969-10.492
		c0.691-2.069,0.829-3.451,0.415-4.831c-0.415-1.381-3.025-3.207-9.111-5.522c-6.35-2.416-8.904-4.21-11.803-7.522
		c-2.898-3.314-4.624-10.285,1.104-13.459C84.07,67.764,89.523,78.942,92.56,85.157L92.56,85.157L92.56,85.157L92.56,85.157z"/>
	<path fill-rule="evenodd" clip-rule="evenodd" d="M28.472,30.531c-1.18-1.403-2.517-1.959-3.095-1.474s-0.333,1.878,0.846,3.283
		c1.178,1.405,2.469,1.847,3.007,1.319C29.703,33.193,29.648,31.936,28.472,30.531L28.472,30.531L28.472,30.531L28.472,30.531z"/>
	<path fill-rule="evenodd" clip-rule="evenodd" d="M34.641,46.379c0.931,0,2.622,0.484,3.519,0.759
		c1.762,0.518,1.554-1.52,0.933-1.899c-1.312-0.862-3.141-1.207-4.486-1.207c-1.347,0-3.175,0.344-4.487,1.207
		c-0.622,0.38-0.828,2.417,0.932,1.899C31.949,46.863,33.709,46.379,34.641,46.379L34.641,46.379L34.641,46.379L34.641,46.379z"/>
</g>
</svg>
