<?xml version="1.0" encoding="UTF-8" standalone="no"?>
<svg width="264px" height="35px" viewBox="0 0 264 35" version="1.1" xmlns="http://www.w3.org/2000/svg" xmlns:xlink="http://www.w3.org/1999/xlink" xmlns:sketch="http://www.bohemiancoding.com/sketch/ns">
    <!-- Generator: Sketch 3.2.2 (9983) - http://www.bohemiancoding.com/sketch -->
    <title>Group</title>
    <desc>Created with Sketch.</desc>
    <defs>
        <linearGradient x1="49.9999966%" y1="4.51741047e-05%" x2="49.9999966%" y2="100.000286%" id="linearGradient-1">
            <stop stop-color="#ADFF2F" offset="0%"></stop>
            <stop stop-color="#6EB600" offset="100%"></stop>
        </linearGradient>
        <linearGradient x1="49.9999951%" y1="-0.592531757%" x2="49.9999951%" y2="100.000276%" id="linearGradient-2">
            <stop stop-color="#FFFFFF" offset="0%"></stop>
            <stop stop-color="#D8D8D8" offset="100%"></stop>
        </linearGradient>
        <linearGradient x1="49.9999951%" y1="-0.000271849877%" x2="49.9999951%" y2="99.9999586%" id="linearGradient-3">
            <stop stop-color="#FFFFFF" offset="0%"></stop>
            <stop stop-color="#D8D8D8" offset="100%"></stop>
        </linearGradient>
        <linearGradient x1="36.664067%" y1="-0.0137735079%" x2="36.664067%" y2="99.9999586%" id="linearGradient-4">
            <stop stop-color="#FFFFFF" offset="0%"></stop>
            <stop stop-color="#D8D8D8" offset="100%"></stop>
        </linearGradient>
        <linearGradient x1="95.1879219%" y1="76.2194827%" x2="95.1879219%" y2="97.8778273%" id="linearGradient-5">
            <stop stop-color="#FFFFFF" offset="0%"></stop>
            <stop stop-color="#D8D8D8" offset="100%"></stop>
        </linearGradient>
        <linearGradient x1="335.236423%" y1="7.81415058%" x2="335.236423%" y2="99.0525812%" id="linearGradient-6">
            <stop stop-color="#FFFFFF" offset="0%"></stop>
            <stop stop-color="#D8D8D8" offset="100%"></stop>
        </linearGradient>
        <linearGradient x1="1156.10819%" y1="35.5409999%" x2="1156.10819%" y2="99.3375375%" id="linearGradient-7">
            <stop stop-color="#FFFFFF" offset="0%"></stop>
            <stop stop-color="#D8D8D8" offset="100%"></stop>
        </linearGradient>
        <linearGradient x1="180.822694%" y1="7.81415058%" x2="180.822694%" y2="99.0525812%" id="linearGradient-8">
            <stop stop-color="#FFFFFF" offset="0%"></stop>
            <stop stop-color="#D8D8D8" offset="100%"></stop>
        </linearGradient>
        <linearGradient x1="41.0472087%" y1="7.81415058%" x2="41.0472087%" y2="99.0525812%" id="linearGradient-9">
            <stop stop-color="#FFFFFF" offset="0%"></stop>
            <stop stop-color="#D8D8D8" offset="100%"></stop>
        </linearGradient>
        <linearGradient x1="-108.390046%" y1="7.81415058%" x2="-108.390046%" y2="99.0525812%" id="linearGradient-10">
            <stop stop-color="#FFFFFF" offset="0%"></stop>
            <stop stop-color="#D8D8D8" offset="100%"></stop>
        </linearGradient>
        <linearGradient x1="-250.899684%" y1="7.81415058%" x2="-250.899684%" y2="99.0525812%" id="linearGradient-11">
            <stop stop-color="#FFFFFF" offset="0%"></stop>
            <stop stop-color="#D8D8D8" offset="100%"></stop>
        </linearGradient>
        <linearGradient x1="-622.542759%" y1="28.3584256%" x2="-622.542759%" y2="99.2637202%" id="linearGradient-12">
            <stop stop-color="#FFFFFF" offset="0%"></stop>
            <stop stop-color="#D8D8D8" offset="100%"></stop>
        </linearGradient>
        <linearGradient x1="43.5101747%" y1="-45.3892864%" x2="43.5101747%" y2="-5.99583709%" id="linearGradient-13">
            <stop stop-color="#ADFF2F" offset="0%"></stop>
            <stop stop-color="#6EB600" offset="100%"></stop>
        </linearGradient>
        <linearGradient x1="320.73482%" y1="0.438629749%" x2="320.73482%" y2="166.388362%" id="linearGradient-14">
            <stop stop-color="#ADFF2F" offset="0%"></stop>
            <stop stop-color="#6EB600" offset="100%"></stop>
        </linearGradient>
        <linearGradient x1="363.293275%" y1="0.438629749%" x2="363.293275%" y2="166.388362%" id="linearGradient-15">
            <stop stop-color="#ADFF2F" offset="0%"></stop>
            <stop stop-color="#6EB600" offset="100%"></stop>
        </linearGradient>
        <linearGradient x1="141.498139%" y1="0.316464965%" x2="141.498139%" y2="120.046776%" id="linearGradient-16">
            <stop stop-color="#ADFF2F" offset="0%"></stop>
            <stop stop-color="#6EB600" offset="100%"></stop>
        </linearGradient>
        <linearGradient x1="20.0509359%" y1="0.438629749%" x2="20.0509359%" y2="166.388362%" id="linearGradient-17">
            <stop stop-color="#ADFF2F" offset="0%"></stop>
            <stop stop-color="#6EB600" offset="100%"></stop>
        </linearGradient>
        <linearGradient x1="-115.356586%" y1="0.438629749%" x2="-115.356586%" y2="166.388362%" id="linearGradient-18">
            <stop stop-color="#ADFF2F" offset="0%"></stop>
            <stop stop-color="#6EB600" offset="100%"></stop>
        </linearGradient>
        <linearGradient x1="-938.809414%" y1="25.1914566%" x2="-938.809414%" y2="149.882968%" id="linearGradient-19">
            <stop stop-color="#ADFF2F" offset="0%"></stop>
            <stop stop-color="#6EB600" offset="100%"></stop>
        </linearGradient>
        <linearGradient x1="-314.37054%" y1="0.438629749%" x2="-314.37054%" y2="166.388362%" id="linearGradient-20">
            <stop stop-color="#ADFF2F" offset="0%"></stop>
            <stop stop-color="#6EB600" offset="100%"></stop>
        </linearGradient>
    </defs>
    <g id="Page-1" stroke="none" stroke-width="1" fill="none" fill-rule="evenodd" sketch:type="MSPage">
        <g id="Group" sketch:type="MSLayerGroup">
            <path d="M9.5466928,3.000006 C11.7388858,3.000006 13.4981808,4.767602 13.4981808,6.959789 L13.4981528,17.132902 L3.9570225,17.134602 C1.764837,17.134602 7.1e-06,15.416802 7.1e-06,13.224615 L8.8817842e-16,3.0018 L9.5466928,3 L9.5466928,3.000006 Z" id="path2267" fill="url(#linearGradient-1)" sketch:type="MSShapeGroup"></path>
            <path d="M20.951488,3.000007 C18.759295,3.000007 17,4.767602 17,6.959789 L17.000028,17.132902 L26.541159,17.134602 C28.733344,17.134602 30.498174,15.416802 30.498174,13.224615 L30.498181,3.0018 L20.951488,3 L20.951488,3.000007 Z" id="path2269" fill="url(#linearGradient-2)" sketch:type="MSShapeGroup"></path>
            <path d="M20.951488,34.134595 C18.759295,34.134595 17,32.367001 17,30.174816 L17.000028,20.0017 L26.541159,20 C28.733344,20 30.498174,21.717804 30.498174,23.909989 L30.498181,34.132802 L20.951488,34.134602 L20.951488,34.134595 Z" id="path2271" fill="url(#linearGradient-3)" sketch:type="MSShapeGroup"></path>
            <path d="M9.5466929,34.134595 C11.7388859,34.134595 13.4981809,32.367001 13.4981809,30.174816 L13.4981529,20.0017 L3.9570225,20 C1.764837,20 7.1e-06,21.717804 7.1e-06,23.909989 L-8.8817842e-16,34.132802 L9.5466929,34.134602 L9.5466929,34.134595 Z" id="path2273" fill="url(#linearGradient-4)" sketch:type="MSShapeGroup"></path>
            <g id="text4536" transform="translate(149.000000, 0.000000)" sketch:type="MSShapeGroup">
                <path d="M14.7442005,18.7228729 C16.0334346,18.7228729 16.4066339,18.1800368 16.4066339,17.1282939 C16.4066339,12.7856151 13.5567411,8.34114624 8.63730252,8.34114624 C3.58215512,8.34114624 0.528699041,12.6838342 0.528699041,17.5693477 C0.528699041,22.3530774 3.03931974,26.7975491 8.80693857,26.7975491 C12.3353685,26.7975491 16.0334346,24.5583532 16.0334346,23.0994831 C16.0334346,22.2513028 15.4905992,21.7763219 14.9477638,21.7763219 C13.8281658,21.7763219 12.8103424,24.2190811 8.84086579,24.2190811 C5.48207188,24.2190811 3.51429363,21.8102491 3.51429363,18.7228729 L14.7442005,18.7228729 M3.51429363,16.4836769 C3.61607526,13.7355756 4.93924357,10.7839054 8.63730252,10.9196143 C11.928242,10.9196143 13.4210393,13.9052117 13.4210393,16.4836769 L3.51429363,16.4836769" id="path5087" fill="url(#linearGradient-6)"></path>
                <path d="M22.2262108,1.99675774 C22.2262108,1.01286932 21.6494482,0.402178816 20.7334135,0.402178816 C19.8173788,0.402178816 19.2406162,1.01286932 19.2406162,1.99675774 L19.2406162,25.2029702 C19.2406162,26.1868593 19.8173788,26.7975491 20.7334135,26.7975491 C21.6494482,26.7975491 22.2262108,26.1868593 22.2262108,25.2029702 L22.2262108,1.99675774" id="path5089" fill="url(#linearGradient-7)"></path>
                <path d="M39.2619118,18.7228729 C40.5511458,18.7228729 40.9243451,18.1800368 40.9243451,17.1282939 C40.9243451,12.7856151 38.0744523,8.34114624 33.1550137,8.34114624 C28.0998663,8.34114624 25.0464103,12.6838342 25.0464103,17.5693477 C25.0464103,22.3530774 27.557031,26.7975491 33.3246498,26.7975491 C36.8530798,26.7975491 40.5511458,24.5583532 40.5511458,23.0994831 C40.5511458,22.2513028 40.0083104,21.7763219 39.465475,21.7763219 C38.3458771,21.7763219 37.3280536,24.2190811 33.358577,24.2190811 C29.9997831,24.2190811 28.0320048,21.8102491 28.0320048,18.7228729 L39.2619118,18.7228729 M28.0320048,16.4836769 C28.1337865,13.7355756 29.4569548,10.7839054 33.1550137,10.9196143 C36.4459532,10.9196143 37.9387505,13.9052117 37.9387505,16.4836769 L28.0320048,16.4836769" id="path5091" fill="url(#linearGradient-8)"></path>
                <path d="M54.445399,25.2029702 C54.445399,26.1868593 55.0221616,26.7975491 55.9381963,26.7975491 C56.854231,26.7975491 57.4309936,26.1868593 57.4309936,25.2029702 L57.4309936,15.0926613 C57.4309936,12.514196 58.8559364,10.9196143 61.2647684,10.9196143 C63.7075276,10.9196143 65.1324705,12.514196 65.1324705,15.0926613 L65.1324705,25.2029702 C65.1324705,26.1868593 65.7092331,26.7975491 66.6252678,26.7975491 C67.5413025,26.7975491 68.1180651,26.1868593 68.1180651,25.2029702 L68.1180651,15.1944429 C68.1180651,10.1053662 64.6235624,8.34114624 61.841531,8.34114624 C59.2291358,8.34114624 57.6345568,9.49467354 56.3113956,11.3945952 C54.9543072,9.087547 53.1222378,8.34114624 51.3580228,8.34114624 C48.6438459,8.34114624 47.5242479,9.63038097 46.8117765,10.546415 L46.743922,10.4785605 L46.743922,9.93572516 C46.743922,8.95183675 46.1671595,8.34114624 45.2511248,8.34114624 C44.3350901,8.34114624 43.7583275,8.95183675 43.7583275,9.93572516 L43.7583275,25.2029702 C43.7583275,26.1868593 44.3350901,26.7975491 45.2511248,26.7975491 C46.1671595,26.7975491 46.743922,26.1868593 46.743922,25.2029702 L46.743922,15.0926613 C46.743922,12.514196 48.1688649,10.9196143 50.5776969,10.9196143 C53.0204561,10.9196143 54.445399,12.514196 54.445399,15.0926613 L54.445399,25.2029702" id="path5093" fill="url(#linearGradient-9)"></path>
                <path d="M85.1829222,18.7228729 C86.4721563,18.7228729 86.8453556,18.1800368 86.8453556,17.1282939 C86.8453556,12.7856151 83.9954628,8.34114624 79.0760242,8.34114624 C74.0208768,8.34114624 70.9674207,12.6838342 70.9674207,17.5693477 C70.9674207,22.3530774 73.4780414,26.7975491 79.2456603,26.7975491 C82.7740902,26.7975491 86.4721563,24.5583532 86.4721563,23.0994831 C86.4721563,22.2513028 85.9293209,21.7763219 85.3864855,21.7763219 C84.2668875,21.7763219 83.2490641,24.2190811 79.2795875,24.2190811 C75.9207936,24.2190811 73.9530153,21.8102491 73.9530153,18.7228729 L85.1829222,18.7228729 M73.9530153,16.4836769 C74.054797,13.7355756 75.3779653,10.7839054 79.0760242,10.9196143 C82.3669637,10.9196143 83.859761,13.9052117 83.859761,16.4836769 L73.9530153,16.4836769" id="path5095" fill="url(#linearGradient-10)"></path>
                <path d="M89.6793379,25.2029702 C89.6793379,26.1868593 90.2561005,26.7975491 91.1721352,26.7975491 C92.0881699,26.7975491 92.6649325,26.1868593 92.6649325,25.2029702 L92.6649325,15.364079 C92.6649325,12.2088511 94.8702012,10.9196143 96.8379795,10.9196143 C98.8057577,10.9196143 101.011026,12.2088511 101.011026,15.364079 L101.011026,25.2029702 C101.011026,26.1868593 101.587789,26.7975491 102.503824,26.7975491 C103.419858,26.7975491 103.996621,26.1868593 103.996621,25.2029702 L103.996621,15.1944429 C103.996621,10.1053662 100.502118,8.34114624 97.720087,8.34114624 C95.9219448,8.34114624 94.0559482,9.01969187 92.7327869,10.716051 L92.6649325,10.6481966 L92.6649325,9.93572516 C92.6649325,8.95183675 92.0881699,8.34114624 91.1721352,8.34114624 C90.2561005,8.34114624 89.6793379,8.95183675 89.6793379,9.93572516 L89.6793379,25.2029702" id="path5097" fill="url(#linearGradient-11)"></path>
                <path d="M108.851923,8.5447095 L107.630543,8.5447095 C106.646654,8.5447095 106.137746,9.01969117 106.137746,9.83394353 C106.137746,10.6481959 106.646654,11.1231776 107.630543,11.1231776 L108.851923,11.1231776 L108.851923,25.2029702 C108.851923,26.1868593 109.428686,26.7975491 110.34472,26.7975491 C111.260755,26.7975491 111.837518,26.1868593 111.837518,25.2029702 L111.837518,11.1231776 L113.058897,11.1231776 C114.042786,11.1231776 114.551695,10.6481959 114.551695,9.83394353 C114.551695,9.01969117 114.042786,8.5447095 113.058897,8.5447095 L111.837518,8.5447095 L111.837518,4.64308022 C111.837518,3.6591918 111.260755,3.04850129 110.34472,3.04850129 C109.428686,3.04850129 108.851923,3.6591918 108.851923,4.64308022 L108.851923,8.5447095" id="path5099" fill="url(#linearGradient-12)"></path>
            </g>
            <g id="text4528" transform="translate(36.000000, 2.000000)" sketch:type="MSShapeGroup">
                <path d="M0.701515773,15.5593371 C0.701515773,20.343069 3.55140646,24.7875386 8.64048319,24.7875386 C13.7295599,24.7875386 16.5794506,20.343069 16.5794506,15.5593371 C16.5794506,10.7756053 13.7295599,6.33113568 8.64048319,6.33113568 C3.55140646,6.33113568 0.701515773,10.7756053 0.701515773,15.5593371 M3.68711036,15.5593371 C3.68711036,12.5058909 4.97634792,8.90960373 8.64048319,8.90960373 C12.3046185,8.90960373 13.593856,12.5058909 13.593856,15.5593371 C13.593856,18.6127833 12.3046185,22.2090705 8.64048319,22.2090705 C4.97634792,22.2090705 3.68711036,18.6127833 3.68711036,15.5593371" id="path5072" fill="url(#linearGradient-14)"></path>
                <path d="M19.7044648,23.1929596 C19.7044648,24.1768481 20.2812281,24.7875386 21.1972621,24.7875386 C22.1132961,24.7875386 22.6900594,24.1768481 22.6900594,23.1929596 L22.6900594,14.6093752 C22.6900594,11.114876 24.8614024,9.79171122 26.6256159,9.48636632 C27.8809213,9.24887584 28.4916125,8.70603975 28.4916125,7.85786018 C28.4916125,7.00968061 27.880922,6.33113568 26.8291792,6.33113568 C25.0988928,6.33113568 23.4364574,8.06142486 22.7579138,9.45243911 L22.6900594,9.45243911 L22.6900594,7.9257146 C22.6900594,6.94182619 22.1132961,6.33113568 21.1972621,6.33113568 C20.2812281,6.33113568 19.7044648,6.94182619 19.7044648,7.9257146 L19.7044648,23.1929596" id="path5074" fill="url(#linearGradient-15)"></path>
                <path d="M45.1652465,7.79000576 C45.1652465,6.73826292 44.3509934,6.33113568 43.7742308,6.33113568 C42.9599778,6.33113568 42.1796519,6.73826292 42.1796519,7.79000576 L42.1796519,8.60425883 L42.1117975,8.60425883 C41.3314716,7.51858948 39.4654729,6.33113568 37.531624,6.33113568 C32.4425472,6.33113568 29.5926566,10.7756053 29.5926566,15.5593371 C29.5926566,20.343069 32.4425472,24.7875386 37.531624,24.7875386 C39.5672545,24.7875386 41.1957628,23.7697208 42.1117975,22.2090705 L42.1796519,22.2090705 L42.1796519,23.7697222 C42.1796519,26.3481875 41.0600469,29.3337849 37.2602063,29.3337849 C34.0371248,29.3337849 32.7139586,27.2302978 31.3568715,27.2302978 C30.4069103,27.2302978 30.1015647,28.0106243 30.1015647,28.6213134 C30.1015647,30.1480365 33.9353424,31.9122529 37.0227158,31.9122529 C41.9082272,31.9122529 45.1652465,28.655235 45.1652465,23.2947413 L45.1652465,7.79000576 M32.5782511,15.5593371 C32.5782511,12.5058909 33.8674887,8.90960373 37.531624,8.90960373 C41.1957557,8.90960373 42.4849968,12.5058909 42.4849968,15.5593371 C42.4849968,18.6127833 41.1957557,22.2090705 37.531624,22.2090705 C33.8674887,22.2090705 32.5782511,18.6127833 32.5782511,15.5593371" id="path5076" fill="url(#linearGradient-16)"></path>
                <path d="M64.1862194,7.79000576 C64.1862194,6.73826292 63.3719663,6.33113568 62.7952037,6.33113568 C62.1845139,6.33113568 61.4041881,6.73826292 61.4041881,7.79000576 L61.4041881,8.73996767 L61.3363337,8.73996767 C59.945318,7.21324458 58.4864479,6.33113568 56.416888,6.33113568 C51.3278134,6.33113568 48.4779206,10.7756053 48.4779206,15.5593371 C48.4779206,20.343069 51.3278134,24.7875386 56.416888,24.7875386 C58.3507391,24.7875386 60.0470996,23.905429 61.3363337,22.0733617 L61.4041881,22.0733617 L61.4041881,23.3286685 C61.4041881,24.3804113 62.1845139,24.7875386 62.7952037,24.7875386 C63.3719663,24.7875386 64.1862194,24.3804113 64.1862194,23.3286685 L64.1862194,7.79000576 M51.4635152,15.5593371 C51.4635152,12.5058909 52.7527563,8.90960373 56.416888,8.90960373 C60.0810198,8.90960373 61.3702609,12.5058909 61.3702609,15.5593371 C61.3702609,18.6127833 60.0810198,22.2090705 56.416888,22.2090705 C52.7527563,22.2090705 51.4635152,18.6127833 51.4635152,15.5593371" id="path5078" fill="url(#linearGradient-17)"></path>
                <path d="M68.1435105,23.1929596 C68.1435105,24.1768481 68.7202731,24.7875386 69.6363078,24.7875386 C70.5523425,24.7875386 71.1291051,24.1768481 71.1291051,23.1929596 L71.1291051,13.3540684 C71.1291051,10.1988406 73.3343738,8.90960373 75.3021521,8.90960373 C77.2699303,8.90960373 79.4751991,10.1988406 79.4751991,13.3540684 L79.4751991,23.1929596 C79.4751991,24.1768481 80.0519616,24.7875386 80.9679963,24.7875386 C81.884031,24.7875386 82.4607936,24.1768481 82.4607936,23.1929596 L82.4607936,13.1844323 C82.4607936,8.09535561 78.9662909,6.33113568 76.1842596,6.33113568 C74.3861174,6.33113568 72.5201208,7.00968132 71.1969595,8.70604046 L71.1291051,8.63818604 L71.1291051,7.9257146 C71.1291051,6.94182619 70.5523425,6.33113568 69.6363078,6.33113568 C68.7202731,6.33113568 68.1435105,6.94182619 68.1435105,7.9257146 L68.1435105,23.1929596" id="path5080" fill="url(#linearGradient-18)"></path>
                <path d="M89.3517283,7.9257146 C89.3517283,6.94182619 88.7749657,6.33113568 87.858931,6.33113568 C86.9428963,6.33113568 86.3661337,6.94182619 86.3661337,7.9257146 L86.3661337,23.1929596 C86.3661337,24.1768481 86.9428963,24.7875386 87.858931,24.7875386 C88.7749657,24.7875386 89.3517283,24.1768481 89.3517283,23.1929596 L89.3517283,7.9257146 M86.0268616,2.05630707 C86.0268616,3.0741227 86.8411147,3.88837647 87.858931,3.88837647 C88.8767473,3.88837647 89.6910004,3.0741227 89.6910004,2.05630707 C89.6910004,1.03849144 88.8767473,0.224237662 87.858931,0.224237662 C86.8411147,0.224237662 86.0268616,1.03849144 86.0268616,2.05630707" id="path5082" fill="url(#linearGradient-19)"></path>
                <path d="M92.4772726,15.5593371 C92.4772726,20.343069 95.1236022,24.7875386 100.619803,24.7875386 C103.70718,24.7875386 105.369613,23.5661576 105.369613,22.446561 C105.369613,21.6323086 104.894632,21.1912542 104.216088,21.1912542 C103.266126,21.1912542 102.72329,22.2090705 100.619803,22.2090705 C96.9217444,22.2090705 95.4628672,18.6127833 95.4628672,15.5593371 C95.4628672,12.5058909 96.9217444,8.90960373 100.619803,8.90960373 C102.655436,8.90960373 103.09649,9.85956564 104.250015,9.85956564 C104.962486,9.85956564 105.471395,9.21494792 105.471395,8.60425883 C105.471395,7.38288064 103.673252,6.33113568 100.619803,6.33113568 C95.1236022,6.33113568 92.4772726,10.7756053 92.4772726,15.5593371" id="path5084" fill="url(#linearGradient-20)"></path>
            </g>
        </g>
    </g>
</svg>