<?xml version="1.0" standalone="no"?>
<!DOCTYPE svg PUBLIC "-//W3C//DTD SVG 1.1//EN" "http://www.w3.org/Graphics/SVG/1.1/DTD/svg11.dtd">
<svg width="269px" height="110px" version="1.1" xmlns="http://www.w3.org/2000/svg" xmlns:xlink="http://www.w3.org/1999/xlink" xml:space="preserve" style="fill-rule:evenodd;clip-rule:evenodd;stroke-linejoin:round;stroke-miterlimit:1.41421;">
    <g>
        <path d="M12.8788,29.63C15.071,29.63 16.8303,31.3976 16.8303,33.5898L16.8303,43.7629L7.28914,43.7646C5.09696,43.7646 3.33213,42.0468 3.33213,39.8546L3.33212,29.6318L12.8788,29.63Z" style="fill:url(#tag1);"/>
        <path d="M24.3151,29.6285C22.1229,29.6285 20.3637,31.3961 20.3637,33.5882L20.3637,43.7614L29.9048,43.7631C32.097,43.7631 33.8618,42.0453 33.8618,39.8531L33.8618,29.6303L24.3151,29.6285Z" style="fill:url(#tag2);"/>
        <path d="M24.3151,61.4318C22.1229,61.4318 20.3637,59.6642 20.3637,57.472L20.3637,47.2989L29.9048,47.2972C32.097,47.2972 33.8618,49.015 33.8618,51.2072L33.8618,61.43L24.3151,61.4318Z" style="fill:url(#tag3);"/>
        <path d="M12.8781,61.4318C15.0703,61.4318 16.8296,59.6642 16.8296,57.472L16.8295,47.2989L7.28841,47.2972C5.09622,47.2972 3.33139,49.015 3.33139,51.2072L3.33139,61.43L12.8781,61.4318Z" style="fill:url(#tag4);"/>
        <g>
            <path d="M166.381,46.2163C167.67,46.2163 168.043,45.6734 168.043,44.6217C168.043,40.279 165.193,35.8345 160.274,35.8345C155.219,35.8345 152.165,40.1772 152.165,45.0627C152.165,49.8465 154.676,54.2909 160.444,54.2909C163.972,54.2909 167.67,52.0517 167.67,50.5929C167.67,49.7447 167.127,49.2697 166.584,49.2697C165.465,49.2697 164.447,51.7125 160.478,51.7125C157.119,51.7125 155.151,49.3036 155.151,46.2163M155.151,43.9771C155.253,41.229 156.576,38.2773 160.274,38.413C163.565,38.413 165.058,41.3986 165.058,43.9771" style="fill:url(#tag5);fill-rule:nonzero;"/>
            <path d="M173.863,29.4901C173.863,28.5063 173.286,27.8956 172.37,27.8956C171.454,27.8956 170.877,28.5063 170.877,29.4901L170.877,52.6964C170.877,53.6802 171.454,54.2909 172.37,54.2909C173.286,54.2909 173.863,53.6802 173.863,52.6964" style="fill:url(#tag6);fill-rule:nonzero;"/>
            <path d="M190.899,46.2163C192.188,46.2163 192.561,45.6734 192.561,44.6217C192.561,40.279 189.711,35.8345 184.792,35.8345C179.737,35.8345 176.683,40.1772 176.683,45.0627C176.683,49.8465 179.194,54.2909 184.961,54.2909C188.49,54.2909 192.188,52.0517 192.188,50.5929C192.188,49.7447 191.645,49.2697 191.102,49.2697C189.983,49.2697 188.965,51.7125 184.995,51.7125C181.636,51.7125 179.669,49.3036 179.669,46.2163M179.669,43.9771C179.77,41.229 181.094,38.2773 184.792,38.413C188.083,38.413 189.575,41.3986 189.575,43.9771" style="fill:url(#tag7);fill-rule:nonzero;"/>
            <path d="M206.082,52.6964C206.082,53.6802 206.659,54.2909 207.575,54.2909C208.491,54.2909 209.068,53.6802 209.068,52.6964L209.068,42.586C209.068,40.0076 210.493,38.413 212.901,38.413C215.344,38.413 216.769,40.0076 216.769,42.586L216.769,52.6964C216.769,53.6802 217.346,54.2909 218.262,54.2909C219.178,54.2909 219.755,53.6802 219.755,52.6964L219.755,42.6878C219.755,37.5988 216.26,35.8345 213.478,35.8345C210.866,35.8345 209.271,36.9881 207.948,38.888C206.591,36.5809 204.759,35.8345 202.995,35.8345C200.281,35.8345 199.161,37.1238 198.448,38.0398L198.381,37.9719L198.381,37.4291C198.381,36.4452 197.804,35.8345 196.888,35.8345C195.972,35.8345 195.395,36.4452 195.395,37.4291L195.395,52.6964C195.395,53.6802 195.972,54.2909 196.888,54.2909C197.804,54.2909 198.381,53.6802 198.381,52.6964L198.381,42.586C198.381,40.0076 199.806,38.413 202.214,38.413C204.657,38.413 206.082,40.0076 206.082,42.586" style="fill:url(#tag8);fill-rule:nonzero;"/>
            <path d="M236.82,46.2163C238.109,46.2163 238.482,45.6734 238.482,44.6217C238.482,40.279 235.632,35.8345 230.713,35.8345C225.658,35.8345 222.604,40.1772 222.604,45.0627C222.604,49.8465 225.115,54.2909 230.882,54.2909C234.411,54.2909 238.109,52.0517 238.109,50.5929C238.109,49.7447 237.566,49.2697 237.023,49.2697C235.904,49.2697 234.886,51.7125 230.916,51.7125C227.557,51.7125 225.59,49.3036 225.59,46.2163M225.59,43.9771C225.691,41.229 227.015,38.2773 230.713,38.413C234.004,38.413 235.496,41.3986 235.496,43.9771" style="fill:url(#tag9);fill-rule:nonzero;"/>
            <path d="M241.316,52.6964C241.316,53.6802 241.893,54.2909 242.809,54.2909C243.725,54.2909 244.302,53.6802 244.302,52.6964L244.302,42.8575C244.302,39.7022 246.507,38.413 248.475,38.413C250.442,38.413 252.648,39.7022 252.648,42.8575L252.648,52.6964C252.648,53.6802 253.224,54.2909 254.141,54.2909C255.057,54.2909 255.633,53.6802 255.633,52.6964L255.633,42.6878C255.633,37.5988 252.139,35.8345 249.357,35.8345C247.559,35.8345 245.693,36.5131 244.369,38.2094L244.302,38.1416L244.302,37.4291C244.302,36.4452 243.725,35.8345 242.809,35.8345C241.893,35.8345 241.316,36.4452 241.316,37.4291" style="fill:url(#tag10);fill-rule:nonzero;"/>
            <path d="M260.489,36.0381L259.267,36.0381C258.283,36.0381 257.774,36.5131 257.774,37.3273C257.774,38.1416 258.283,38.6166 259.267,38.6166L260.489,38.6166L260.489,52.6964C260.489,53.6802 261.065,54.2909 261.981,54.2909C262.897,54.2909 263.474,53.6802 263.474,52.6964L263.474,38.6166L264.696,38.6166C265.679,38.6166 266.188,38.1416 266.188,37.3273C266.188,36.5131 265.679,36.0381 264.696,36.0381L263.474,36.0381L263.474,32.1365C263.474,31.1526 262.897,30.5419 261.981,30.5419C261.065,30.5419 260.489,31.1526 260.489,32.1365" style="fill:url(#tag11);fill-rule:nonzero;"/>
        </g>
        <g>
            <path d="M39.6808,45.0396C39.6808,49.8234 42.5307,54.2678 47.6197,54.2678C52.7088,54.2678 55.5587,49.8234 55.5587,45.0396C55.5587,40.2559 52.7088,35.8114 47.6197,35.8114C42.5307,35.8114 39.6808,40.2559 39.6808,45.0396M42.6664,45.0396C42.6664,41.9862 43.9556,38.3899 47.6197,38.3899C51.2839,38.3899 52.5731,41.9862 52.5731,45.0396C52.5731,48.0931 51.2839,51.6894 47.6197,51.6894C43.9556,51.6894 42.6664,48.0931 42.6664,45.0396" style="fill:url(#tag12);fill-rule:nonzero;"/>
            <path d="M58.6837,52.6733C58.6837,53.6571 59.2605,54.2678 60.1765,54.2678C61.0926,54.2678 61.6693,53.6571 61.6693,52.6733L61.6693,44.0897C61.6693,40.5952 63.8407,39.272 65.6049,38.9667C66.8602,38.7292 67.4709,38.1863 67.4709,37.3382C67.4709,36.49 66.8602,35.8114 65.8084,35.8114C64.0782,35.8114 62.4157,37.5417 61.7372,38.9327L61.6693,38.9327L61.6693,37.406C61.6693,36.4221 61.0926,35.8114 60.1765,35.8114C59.2605,35.8114 58.6837,36.4221 58.6837,37.406" style="fill:url(#tag13);fill-rule:nonzero;"/>
            <path d="M84.1445,37.2703C84.1445,36.2186 83.3303,35.8114 82.7535,35.8114C81.9392,35.8114 81.1589,36.2186 81.1589,37.2703L81.1589,38.0846L81.0911,38.0846C80.3107,36.9989 78.4447,35.8114 76.5109,35.8114C71.4218,35.8114 68.5719,40.2559 68.5719,45.0396C68.5719,49.8234 71.4218,54.2678 76.5109,54.2678C78.5465,54.2678 80.175,53.25 81.0911,51.6894L81.1589,51.6894L81.1589,53.25C81.1589,55.8285 80.0393,58.8141 76.2395,58.8141C73.0164,58.8141 71.6932,56.7106 70.3361,56.7106C69.3862,56.7106 69.0808,57.4909 69.0808,58.1016C69.0808,59.6283 72.9146,61.3926 76.002,61.3926C80.8875,61.3926 84.1445,58.1355 84.1445,52.775M71.5575,45.0396C71.5575,41.9862 72.8468,38.3899 76.5109,38.3899C80.175,38.3899 81.4643,41.9862 81.4643,45.0396C81.4643,48.0931 80.175,51.6894 76.5109,51.6894C72.8468,51.6894 71.5575,48.0931 71.5575,45.0396" style="fill:url(#tag14);fill-rule:nonzero;"/>
            <path d="M103.165,37.2703C103.165,36.2186 102.351,35.8114 101.774,35.8114C101.164,35.8114 100.383,36.2186 100.383,37.2703L100.383,38.2203L100.316,38.2203C98.9246,36.6935 97.4657,35.8114 95.3962,35.8114C90.3071,35.8114 87.4572,40.2559 87.4572,45.0396C87.4572,49.8234 90.3071,54.2678 95.3962,54.2678C97.33,54.2678 99.0264,53.3857 100.316,51.5537L100.383,51.5537L100.383,52.809C100.383,53.8607 101.164,54.2678 101.774,54.2678C102.351,54.2678 103.165,53.8607 103.165,52.809M90.4428,45.0396C90.4428,41.9862 91.732,38.3899 95.3962,38.3899C99.0603,38.3899 100.35,41.9862 100.35,45.0396C100.35,48.0931 99.0603,51.6894 95.3962,51.6894C91.732,51.6894 90.4428,48.0931 90.4428,45.0396" style="fill:url(#tag15);fill-rule:nonzero;"/>
            <path d="M107.123,52.6733C107.123,53.6571 107.7,54.2678 108.616,54.2678C109.532,54.2678 110.108,53.6571 110.108,52.6733L110.108,42.8344C110.108,39.6791 112.314,38.3899 114.281,38.3899C116.249,38.3899 118.454,39.6791 118.454,42.8344L118.454,52.6733C118.454,53.6571 119.031,54.2678 119.947,54.2678C120.863,54.2678 121.44,53.6571 121.44,52.6733L121.44,42.6647C121.44,37.5757 117.946,35.8114 115.164,35.8114C113.365,35.8114 111.499,36.49 110.176,38.1863L110.108,38.1185L110.108,37.406C110.108,36.4221 109.532,35.8114 108.616,35.8114C107.7,35.8114 107.123,36.4221 107.123,37.406" style="fill:url(#tag16);fill-rule:nonzero;"/>
            <path d="M128.331,37.406C128.331,36.4221 127.754,35.8114 126.838,35.8114C125.922,35.8114 125.345,36.4221 125.345,37.406L125.345,52.6733C125.345,53.6571 125.922,54.2678 126.838,54.2678C127.754,54.2678 128.331,53.6571 128.331,52.6733M125.006,31.5366C125.006,32.5544 125.82,33.3687 126.838,33.3687C127.856,33.3687 128.67,32.5544 128.67,31.5366C128.67,30.5188 127.856,29.7045 126.838,29.7045C125.82,29.7045 125.006,30.5188 125.006,31.5366" style="fill:url(#tag17);fill-rule:nonzero;"/>
            <path d="M131.457,45.0396C131.457,49.8234 134.103,54.2678 139.599,54.2678C142.686,54.2678 144.349,53.0465 144.349,51.9269C144.349,51.1126 143.874,50.6716 143.195,50.6716C142.245,50.6716 141.703,51.6894 139.599,51.6894C135.901,51.6894 134.442,48.0931 134.442,45.0396C134.442,41.9862 135.901,38.3899 139.599,38.3899C141.635,38.3899 142.076,39.3399 143.229,39.3399C143.942,39.3399 144.451,38.6952 144.451,38.0846C144.451,36.8632 142.653,35.8114 139.599,35.8114C134.103,35.8114 131.457,40.2559 131.457,45.0396" style="fill:url(#tag18);fill-rule:nonzero;"/>
        </g>
    </g>
    <defs>
        <linearGradient id="tag1" x1="0" y1="0" x2="1" y2="0" gradientUnits="userSpaceOnUse" gradientTransform="matrix(8.65497e-16,14.1346,-14.1346,8.65497e-16,10.0812,29.63)"><stop offset="0%" style="stop-color:rgb(173,255,47);stop-opacity:1"/><stop offset="100%" style="stop-color:rgb(110,182,0);stop-opacity:1"/></linearGradient>
        <linearGradient id="tag2" x1="0" y1="0" x2="1" y2="0" gradientUnits="userSpaceOnUse" gradientTransform="matrix(8.70625e-16,14.2184,-14.2184,8.70625e-16,27.1127,29.5447)"><stop offset="0%" style="stop-color:white;stop-opacity:1"/><stop offset="100%" style="stop-color:rgb(216,216,216);stop-opacity:1"/></linearGradient>
        <linearGradient id="tag3" x1="0" y1="0" x2="1" y2="0" gradientUnits="userSpaceOnUse" gradientTransform="matrix(8.65497e-16,14.1346,-14.1346,8.65497e-16,27.1127,47.2972)"><stop offset="0%" style="stop-color:white;stop-opacity:1"/><stop offset="100%" style="stop-color:rgb(216,216,216);stop-opacity:1"/></linearGradient>
        <linearGradient id="tag4" x1="0" y1="0" x2="1" y2="0" gradientUnits="userSpaceOnUse" gradientTransform="matrix(8.65614e-16,14.1365,-14.1365,8.65614e-16,8.28037,47.2953)"><stop offset="0%" style="stop-color:white;stop-opacity:1"/><stop offset="100%" style="stop-color:rgb(216,216,216);stop-opacity:1"/></linearGradient>
        <linearGradient id="tag5" x1="0" y1="0" x2="1" y2="0" gradientUnits="userSpaceOnUse" gradientTransform="matrix(1.03111e-15,16.8393,-16.8393,1.03111e-15,205.394,37.2767)"><stop offset="0%" style="stop-color:white;stop-opacity:1"/><stop offset="100%" style="stop-color:rgb(216,216,216);stop-opacity:1"/></linearGradient>
        <linearGradient id="tag6" x1="0" y1="0" x2="1" y2="0" gradientUnits="userSpaceOnUse" gradientTransform="matrix(1.03111e-15,16.8393,-16.8393,1.03111e-15,205.394,37.2767)"><stop offset="0%" style="stop-color:white;stop-opacity:1"/><stop offset="100%" style="stop-color:rgb(216,216,216);stop-opacity:1"/></linearGradient>
        <linearGradient id="tag7" x1="0" y1="0" x2="1" y2="0" gradientUnits="userSpaceOnUse" gradientTransform="matrix(1.03111e-15,16.8393,-16.8393,1.03111e-15,205.394,37.2767)"><stop offset="0%" style="stop-color:white;stop-opacity:1"/><stop offset="100%" style="stop-color:rgb(216,216,216);stop-opacity:1"/></linearGradient>
        <linearGradient id="tag8" x1="0" y1="0" x2="1" y2="0" gradientUnits="userSpaceOnUse" gradientTransform="matrix(1.03111e-15,16.8393,-16.8393,1.03111e-15,205.394,37.2767)"><stop offset="0%" style="stop-color:white;stop-opacity:1"/><stop offset="100%" style="stop-color:rgb(216,216,216);stop-opacity:1"/></linearGradient>
        <linearGradient id="tag9" x1="0" y1="0" x2="1" y2="0" gradientUnits="userSpaceOnUse" gradientTransform="matrix(1.03111e-15,16.8393,-16.8393,1.03111e-15,205.394,37.2767)"><stop offset="0%" style="stop-color:white;stop-opacity:1"/><stop offset="100%" style="stop-color:rgb(216,216,216);stop-opacity:1"/></linearGradient>
        <linearGradient id="tag10" x1="0" y1="0" x2="1" y2="0" gradientUnits="userSpaceOnUse" gradientTransform="matrix(1.03111e-15,16.8393,-16.8393,1.03111e-15,205.394,37.2767)"><stop offset="0%" style="stop-color:white;stop-opacity:1"/><stop offset="100%" style="stop-color:rgb(216,216,216);stop-opacity:1"/></linearGradient>
        <linearGradient id="tag11" x1="0" y1="0" x2="1" y2="0" gradientUnits="userSpaceOnUse" gradientTransform="matrix(1.03111e-15,16.8393,-16.8393,1.03111e-15,205.394,37.2767)"><stop offset="0%" style="stop-color:white;stop-opacity:1"/><stop offset="100%" style="stop-color:rgb(216,216,216);stop-opacity:1"/></linearGradient>
        <linearGradient id="tag12" x1="0" y1="0" x2="1" y2="0" gradientUnits="userSpaceOnUse" gradientTransform="matrix(1.87545e-15,30.6284,-30.6284,1.87545e-15,90.6068,35.8924)"><stop offset="0%" style="stop-color:rgb(173,255,47);stop-opacity:1"/><stop offset="100%" style="stop-color:rgb(110,182,0);stop-opacity:1"/></linearGradient>
        <linearGradient id="tag13" x1="0" y1="0" x2="1" y2="0" gradientUnits="userSpaceOnUse" gradientTransform="matrix(1.87545e-15,30.6284,-30.6284,1.87545e-15,90.6068,35.8924)"><stop offset="0%" style="stop-color:rgb(173,255,47);stop-opacity:1"/><stop offset="100%" style="stop-color:rgb(110,182,0);stop-opacity:1"/></linearGradient>
        <linearGradient id="tag14" x1="0" y1="0" x2="1" y2="0" gradientUnits="userSpaceOnUse" gradientTransform="matrix(1.87545e-15,30.6284,-30.6284,1.87545e-15,90.6068,35.8924)"><stop offset="0%" style="stop-color:rgb(173,255,47);stop-opacity:1"/><stop offset="100%" style="stop-color:rgb(110,182,0);stop-opacity:1"/></linearGradient>
        <linearGradient id="tag15" x1="0" y1="0" x2="1" y2="0" gradientUnits="userSpaceOnUse" gradientTransform="matrix(1.87545e-15,30.6284,-30.6284,1.87545e-15,90.6068,35.8924)"><stop offset="0%" style="stop-color:rgb(173,255,47);stop-opacity:1"/><stop offset="100%" style="stop-color:rgb(110,182,0);stop-opacity:1"/></linearGradient>
        <linearGradient id="tag16" x1="0" y1="0" x2="1" y2="0" gradientUnits="userSpaceOnUse" gradientTransform="matrix(1.87545e-15,30.6284,-30.6284,1.87545e-15,90.6068,35.8924)"><stop offset="0%" style="stop-color:rgb(173,255,47);stop-opacity:1"/><stop offset="100%" style="stop-color:rgb(110,182,0);stop-opacity:1"/></linearGradient>
        <linearGradient id="tag17" x1="0" y1="0" x2="1" y2="0" gradientUnits="userSpaceOnUse" gradientTransform="matrix(1.87545e-15,30.6284,-30.6284,1.87545e-15,90.6068,35.8924)"><stop offset="0%" style="stop-color:rgb(173,255,47);stop-opacity:1"/><stop offset="100%" style="stop-color:rgb(110,182,0);stop-opacity:1"/></linearGradient>
        <linearGradient id="tag18" x1="0" y1="0" x2="1" y2="0" gradientUnits="userSpaceOnUse" gradientTransform="matrix(1.87545e-15,30.6284,-30.6284,1.87545e-15,90.6068,35.8924)"><stop offset="0%" style="stop-color:rgb(173,255,47);stop-opacity:1"/><stop offset="100%" style="stop-color:rgb(110,182,0);stop-opacity:1"/></linearGradient>
    </defs>
</svg>
